<?xml version="1.0" encoding="UTF-8" standalone="no"?>
<svg width="64" height="64">
	<g transform="matrix(1.2,0,0,1.2,-579.7324,-351.106)">
		<path d="m 509.777,296.755 c -12.426,0 -22.5,10.073 -22.5,22.5 0,12.427 10.074,22.5 22.5,22.5 12.426,0 22.5,-10.073 22.5,-22.5 0,-12.427 -10.074,-22.5 -22.5,-22.5 z m 14.063,22.5 c 0,2.344 -0.584,4.55 -1.602,6.495 l -18.955,-18.955 c 1.945,-1.019 4.151,-1.603 6.494,-1.603 7.754,10e-4 14.063,6.309 14.063,14.063 z m -28.125,0 c 0,-2.343 0.584,-4.55 1.602,-6.493 l 18.955,18.953 c -1.943,1.019 -4.15,1.603 -6.494,1.603 -7.755,0 -14.063,-6.308 -14.063,-14.063 z"
		      style="fill:#333333" />
	</g>
</svg>
