<svg xmlns:rdf="http://www.w3.org/1999/02/22-rdf-syntax-ns#" xmlns="http://www.w3.org/2000/svg" height="64" width="64" version="1.1" xmlns:cc="http://creativecommons.org/ns#" xmlns:dc="http://purl.org/dc/elements/1.1/">
	<path d="M58.168,50.56,46.013,38.407c-0.91442-0.91442-2.3016-1.0644-3.3865-0.47161l-2.592-2.592c2.208-3.1357,3.5185-6.9493,3.5185-11.068,0-10.629-8.6485-19.276-19.277-19.276-10.629,0-19.276,8.6461-19.276,19.276s8.6461,19.277,19.276,19.277c4.1017,0,7.8985-1.296,11.026-3.4873l2.6088,2.6112c-0.56041,1.0752-0.40321,2.4348,0.49681,3.3373l12.155,12.153c1.1088,1.1112,2.9268,1.1112,4.0357,0l3.5725-3.5701c1.1064-1.1088,1.1064-2.9256-0.0024-4.0369z" fill="#333"/>
	<path fill="#FFF" d="M36.626,24.307c0.39,7.832-8.369,14.567-16.05,11.613-7.563-2.416-10.612-12.296-6.089-18.543,4.1285-6.8311,15.305-7.0806,19.727-0.41516,1.5717,2.1218,2.4162,4.7323,2.4118,7.3444z"/>
</svg>
