<?xml version="1.0" encoding="UTF-8" standalone="no"?>
<svg width="64" height="64">
	<g transform="matrix(1.20002,0,0,1.20002,-651.97375,-567.99305)">
		<path d="m 591.775,515.452 -10.129,-10.127 c -0.762,-0.762 -1.918,-0.887 -2.822,-0.393 l -2.16,-2.16 c 1.84,-2.613 2.932,-5.791 2.932,-9.223 0,-8.857 -7.207,-16.063 -16.064,-16.063 -8.857,0 -16.063,7.205 -16.063,16.063 0,8.858 7.205,16.064 16.063,16.064 3.418,0 6.582,-1.08 9.188,-2.906 l 2.174,2.176 c -0.467,0.896 -0.336,2.029 0.414,2.781 l 10.129,10.127 c 0.924,0.926 2.439,0.926 3.363,0 l 2.977,-2.975 c 0.922,-0.924 0.922,-2.438 -0.002,-3.364 z m -28.244,-11.787 c -5.584,0 -10.113,-4.529 -10.113,-10.115 0,-5.584 4.529,-10.113 10.113,-10.113 5.586,0 10.115,4.529 10.115,10.113 0,5.586 -4.529,10.115 -10.115,10.115 z"
		      style="fill:#333333" />
	</g>
</svg>
