<svg xmlns:rdf="http://www.w3.org/1999/02/22-rdf-syntax-ns#" xmlns="http://www.w3.org/2000/svg" height="64" width="64" version="1.1" xmlns:cc="http://creativecommons.org/ns#" xmlns:dc="http://purl.org/dc/elements/1.1/">
	<metadata>
		<rdf:RDF>
			<cc:Work rdf:about="">
				<dc:format>image/svg+xml</dc:format>
				<dc:type rdf:resource="http://purl.org/dc/dcmitype/StillImage"/>
				<dc:title/>
			</cc:Work>
		</rdf:RDF>
	</metadata>
	<path d="M58.168,50.56,46.013,38.407c-0.91442-0.91442-2.3016-1.0644-3.3865-0.47161l-2.592-2.592c2.208-3.1357,3.5185-6.9493,3.5185-11.068,0-10.629-8.6485-19.276-19.277-19.276-10.629,0-19.276,8.6461-19.276,19.276s8.6461,19.277,19.276,19.277c4.1017,0,7.8985-1.296,11.026-3.4873l2.6088,2.6112c-0.56041,1.0752-0.40321,2.4348,0.49681,3.3373l12.155,12.153c1.1088,1.1112,2.9268,1.1112,4.0357,0l3.5725-3.5701c1.1064-1.1088,1.1064-2.9256-0.0024-4.0369z" fill="#333"/>
	<path d="m1.4382,21.622a11.793,12.272,0,1,1,-23.586,0,11.793,12.272,0,1,1,23.586,0z" transform="matrix(1.0284553,0,0,1,35.146627,2.6846088)" fill="#FFF"/>
</svg>
